<?xml version="1.0" encoding="UTF-8"?>
<svg width="221px" height="38px" viewBox="0 0 221 38" version="1.1" xmlns="http://www.w3.org/2000/svg" xmlns:xlink="http://www.w3.org/1999/xlink">
    <title>logo</title>
    <g id="Page-1" stroke="none" stroke-width="1" fill="none" fill-rule="evenodd">
        <g id="Logo-Work" transform="translate(-1137.000000, -960.000000)" fill-rule="nonzero">
            <g id="logo-seo-site-checkup" transform="translate(1137.000000, 960.000000)">
                <path d="M10.2284389,25.0780887 L12.6996676,25.0780887 C13.1161513,25.0780887 13.5015024,24.8742144 13.7242728,24.5284546 L14.7184373,23.0489884 L16.4577063,29.1066724 C16.6016076,29.6156694 17.0547585,30 17.683635,30 C18.24402,29.9800258 18.725536,29.58743 18.8521415,29.0384847 L20.7166323,20.8463194 L22.000675,26.5754628 C22.2033822,27.4701679 23.2653464,27.8372794 23.980702,27.2690486 L26.7335069,25.0773999 L28.7723398,25.0773999 C30.4133684,25.0773999 30.4050664,22.614378 28.7723398,22.614378 L26.3004192,22.614378 C26.0188431,22.614378 25.7490281,22.710805 25.5276414,22.8843737 L23.9820857,24.1145071 L21.9453284,14.9615153 C21.818031,14.4029272 21.3171437,14 20.7366955,14 C20.1569392,14 19.6546682,14.3946621 19.5294463,14.9615153 L17.5106766,23.8080069 L16.3629251,19.817994 C16.0723551,18.8185966 14.7288148,18.5968145 14.1504421,19.4708567 L12.0445014,22.6150667 L10.2284389,22.6150667 C8.58602654,22.6150667 8.59502037,25.0780887 10.2284389,25.0780887 Z M37.9224481,0 L2.07655212,0 C0.931799024,0 0,0.968 0,2.164 L0,35.841 C0,37.034 0.932798808,38 2.07655212,38 L37.9224481,38 C39.0692008,38 40,37.034 40,35.841 L40,2.164 C40,0.968 39.0702005,0 37.9224481,0 Z M15.0005183,3 C16.1054677,3 17,3.89533679 17,5.00103627 C17,6.10466321 16.1054677,7 15.0005183,7 C13.8955688,7 13,6.10569948 13,5.00103627 C13.0010365,3.89533679 13.8955688,3 15.0005183,3 Z M10.0010363,3 C11.1046632,3 12,3.89533679 12,5.00103627 C12,6.10466321 11.1046632,7 10.0010363,7 C8.89533679,7 8,6.10569948 8,5.00103627 C8,3.89533679 8.89637306,3 10.0010363,3 Z M5.00051827,3 C6.10650428,3 7,3.89533679 7,5.00103627 C7,6.10466321 6.10650428,7 5.00051827,7 C3.8955688,7 3,6.10569948 3,5.00103627 C3,3.89533679 3.8955688,3 5.00051827,3 Z M37,33.093631 C37,34.1458347 36.1526234,35 35.1071587,35 L4.89484215,35 C3.84837706,35 3,34.1458347 3,33.093631 L3,12 C3,10.8954305 3.8954305,10 5,10 L35,10 C36.1045695,10 37,10.8954305 37,12 L37,33.093631 L37,33.093631 Z" id="Shape-Copy-9" fill="#FE6100"></path>
                <path d="M53.578,30.264 C54.4286667,30.264 55.206,30.1613333 55.91,29.956 C56.614,29.7506667 57.219,29.4463333 57.725,29.043 C58.231,28.6396667 58.627,28.141 58.913,27.547 C59.199,26.953 59.342,26.26 59.342,25.468 C59.342,24.5 59.1366667,23.7226667 58.726,23.136 C58.3153333,22.5493333 57.8056667,22.08 57.197,21.728 C56.5883333,21.376 55.9246667,21.0973333 55.206,20.892 C54.4873333,20.6866667 53.8236667,20.4776667 53.215,20.265 C52.6063333,20.0523333 52.0966667,19.7993333 51.686,19.506 C51.2753333,19.2126667 51.07,18.7946667 51.07,18.252 C51.07,17.636 51.2936667,17.1666667 51.741,16.844 C52.1883333,16.5213333 52.7566667,16.36 53.446,16.36 C54.194,16.36 54.799,16.5323333 55.261,16.877 C55.723,17.2216667 56.1006667,17.7606667 56.394,18.494 L56.394,18.494 L58.946,17.57 C58.506,16.3233333 57.8313333,15.4066667 56.922,14.82 C56.0126667,14.2333333 54.8393333,13.94 53.402,13.94 C52.6393333,13.94 51.9353333,14.0426667 51.29,14.248 C50.6446667,14.4533333 50.091,14.743 49.629,15.117 C49.167,15.491 48.804,15.9456667 48.54,16.481 C48.276,17.0163333 48.144,17.614 48.144,18.274 C48.144,19.2566667 48.3493333,20.0413333 48.76,20.628 C49.1706667,21.2146667 49.684,21.684 50.3,22.036 C50.916,22.388 51.587,22.6703333 52.313,22.883 C53.039,23.0956667 53.71,23.312 54.326,23.532 C54.942,23.752 55.4553333,24.0233333 55.866,24.346 C56.2766667,24.6686667 56.482,25.116 56.482,25.688 C56.482,26.392 56.2253333,26.92 55.712,27.272 C55.1986667,27.624 54.546,27.8 53.754,27.8 C52.8153333,27.8 52.0893333,27.5763333 51.576,27.129 C51.0626667,26.6816667 50.696,26.0326667 50.476,25.182 L50.476,25.182 L47.66,26.062 C48.144,27.558 48.87,28.6323333 49.838,29.285 C50.806,29.9376667 52.0526667,30.264 53.578,30.264 Z M72.41,30 L72.41,27.448 L64.996,27.448 L64.996,23.092 L70.122,23.092 L70.122,20.628 L64.996,20.628 L64.996,16.756 L72.168,16.756 L72.168,14.204 L61.96,14.204 L61.96,30 L72.41,30 Z M80.594,30.264 C81.6793333,30.264 82.64,30.0696667 83.476,29.681 C84.312,29.2923333 85.016,28.7423333 85.588,28.031 C86.16,27.3196667 86.5926667,26.4616667 86.886,25.457 C87.1793333,24.4523333 87.326,23.334 87.326,22.102 C87.326,21.046 87.2013333,20.0303333 86.952,19.055 C86.7026667,18.0796667 86.3066667,17.2106667 85.764,16.448 C85.2213333,15.6853333 84.5246667,15.0766667 83.674,14.622 C82.8233333,14.1673333 81.7966667,13.94 80.594,13.94 C79.3913333,13.94 78.3646667,14.1673333 77.514,14.622 C76.6633333,15.0766667 75.9666667,15.6853333 75.424,16.448 C74.8813333,17.2106667 74.4853333,18.0796667 74.236,19.055 C73.9866667,20.0303333 73.862,21.046 73.862,22.102 C73.862,23.334 74.0086667,24.4523333 74.302,25.457 C74.5953333,26.4616667 75.028,27.3196667 75.6,28.031 C76.172,28.7423333 76.876,29.2923333 77.712,29.681 C78.548,30.0696667 79.5086667,30.264 80.594,30.264 Z M80.594,27.8 C79.3766667,27.8 78.4563333,27.3013333 77.833,26.304 C77.2096667,25.3066667 76.898,23.906 76.898,22.102 C76.898,20.2833333 77.2133333,18.8716667 77.844,17.867 C78.4746667,16.8623333 79.3913333,16.36 80.594,16.36 C81.7966667,16.36 82.717,16.8623333 83.355,17.867 C83.993,18.8716667 84.312,20.2833333 84.312,22.102 C84.312,23.906 83.9966667,25.3066667 83.366,26.304 C82.7353333,27.3013333 81.8113333,27.8 80.594,27.8 Z M99.844,30.264 C100.694667,30.264 101.472,30.1613333 102.176,29.956 C102.88,29.7506667 103.485,29.4463333 103.991,29.043 C104.497,28.6396667 104.893,28.141 105.179,27.547 C105.465,26.953 105.608,26.26 105.608,25.468 C105.608,24.5 105.402667,23.7226667 104.992,23.136 C104.581333,22.5493333 104.071667,22.08 103.463,21.728 C102.854333,21.376 102.190667,21.0973333 101.472,20.892 C100.753333,20.6866667 100.089667,20.4776667 99.481,20.265 C98.8723333,20.0523333 98.3626667,19.7993333 97.952,19.506 C97.5413333,19.2126667 97.336,18.7946667 97.336,18.252 C97.336,17.636 97.5596667,17.1666667 98.007,16.844 C98.4543333,16.5213333 99.0226667,16.36 99.712,16.36 C100.46,16.36 101.065,16.5323333 101.527,16.877 C101.989,17.2216667 102.366667,17.7606667 102.66,18.494 L102.66,18.494 L105.212,17.57 C104.772,16.3233333 104.097333,15.4066667 103.188,14.82 C102.278667,14.2333333 101.105333,13.94 99.668,13.94 C98.9053333,13.94 98.2013333,14.0426667 97.556,14.248 C96.9106667,14.4533333 96.357,14.743 95.895,15.117 C95.433,15.491 95.07,15.9456667 94.806,16.481 C94.542,17.0163333 94.41,17.614 94.41,18.274 C94.41,19.2566667 94.6153333,20.0413333 95.026,20.628 C95.4366667,21.2146667 95.95,21.684 96.566,22.036 C97.182,22.388 97.853,22.6703333 98.579,22.883 C99.305,23.0956667 99.976,23.312 100.592,23.532 C101.208,23.752 101.721333,24.0233333 102.132,24.346 C102.542667,24.6686667 102.748,25.116 102.748,25.688 C102.748,26.392 102.491333,26.92 101.978,27.272 C101.464667,27.624 100.812,27.8 100.02,27.8 C99.0813333,27.8 98.3553333,27.5763333 97.842,27.129 C97.3286667,26.6816667 96.962,26.0326667 96.742,25.182 L96.742,25.182 L93.926,26.062 C94.41,27.558 95.136,28.6323333 96.104,29.285 C97.072,29.9376667 98.3186667,30.264 99.844,30.264 Z M110.668,16.734 L110.668,14.05 L107.852,14.05 L107.852,16.734 L110.668,16.734 Z M110.58,30 L110.58,18.56 L107.918,18.56 L107.918,30 L110.58,30 Z M116.982,30.176 C117.348667,30.176 117.697,30.1576667 118.027,30.121 C118.357,30.0843333 118.683333,30.0366667 119.006,29.978 L119.006,29.978 L119.006,27.8 C118.595333,27.9026667 118.184667,27.954 117.774,27.954 C117.378,27.954 117.092,27.8513333 116.916,27.646 C116.74,27.4406667 116.652,27.1033333 116.652,26.634 L116.652,26.634 L116.652,20.628 L119.006,20.628 L119.006,18.56 L116.652,18.56 L116.652,14.754 L113.968,14.754 L113.968,18.56 L112.296,18.56 L112.296,20.628 L113.968,20.628 L113.968,26.832 C113.968,27.4773333 114.023,28.0126667 114.133,28.438 C114.243,28.8633333 114.419,29.2043333 114.661,29.461 C114.903,29.7176667 115.214667,29.901 115.596,30.011 C115.977333,30.121 116.439333,30.176 116.982,30.176 Z M125.364,30.264 C126.346667,30.264 127.259667,30.055 128.103,29.637 C128.946333,29.219 129.668667,28.4673333 130.27,27.382 L130.27,27.382 L128.246,26.348 C127.923333,26.964 127.549333,27.415 127.124,27.701 C126.698667,27.987 126.178,28.13 125.562,28.13 C124.667333,28.13 124.029333,27.8293333 123.648,27.228 C123.266667,26.6266667 123.046667,25.8126667 122.988,24.786 L122.988,24.786 L130.292,24.786 C130.306667,24.6246667 130.314,24.4853333 130.314,24.368 L130.314,24.368 L130.314,24.06 C130.314,22.3 129.907,20.8993333 129.093,19.858 C128.279,18.8166667 127.058,18.296 125.43,18.296 C124.682,18.296 123.996333,18.4353333 123.373,18.714 C122.749667,18.9926667 122.218,19.3886667 121.778,19.902 C121.338,20.4153333 120.993333,21.035 120.744,21.761 C120.494667,22.487 120.37,23.3046667 120.37,24.214 C120.37,25.094 120.472667,25.9043333 120.678,26.645 C120.883333,27.3856667 121.195,28.0236667 121.613,28.559 C122.031,29.0943333 122.551667,29.5123333 123.175,29.813 C123.798333,30.1136667 124.528,30.264 125.364,30.264 Z M127.74,23.004 L123.032,23.004 C123.149333,22.2266667 123.402333,21.585 123.791,21.079 C124.179667,20.573 124.733333,20.32 125.452,20.32 C126.170667,20.32 126.731667,20.562 127.135,21.046 C127.538333,21.53 127.74,22.1826667 127.74,23.004 L127.74,23.004 Z M143.36,30.264 C144.078667,30.264 144.760667,30.1906667 145.406,30.044 C146.051333,29.8973333 146.641667,29.6406667 147.177,29.274 C147.712333,28.9073333 148.189,28.4086667 148.607,27.778 C149.025,27.1473333 149.366,26.348 149.63,25.38 L149.63,25.38 L146.748,24.72 C146.454667,25.82 146.022,26.5936667 145.45,27.041 C144.878,27.4883333 144.210667,27.712 143.448,27.712 C142.304,27.712 141.442333,27.2463333 140.863,26.315 C140.283667,25.3836667 139.994,23.9353333 139.994,21.97 C139.994,20.1953333 140.305667,18.8313333 140.929,17.878 C141.552333,16.9246667 142.414,16.448 143.514,16.448 C144.262,16.448 144.892667,16.657 145.406,17.075 C145.919333,17.493 146.315333,18.2226667 146.594,19.264 L146.594,19.264 L149.41,18.736 C149.028667,17.0493333 148.357667,15.8283333 147.397,15.073 C146.436333,14.3176667 145.156667,13.94 143.558,13.94 C142.546,13.94 141.633,14.1196667 140.819,14.479 C140.005,14.8383333 139.312,15.359 138.74,16.041 C138.168,16.723 137.728,17.5626667 137.42,18.56 C137.112,19.5573333 136.958,20.694 136.958,21.97 C136.958,24.5953333 137.500667,26.634 138.586,28.086 C139.671333,29.538 141.262667,30.264 143.36,30.264 Z M154.316,30 L154.316,21.816 C155.196,20.98 156.039333,20.562 156.846,20.562 C157.491333,20.562 157.920333,20.749 158.133,21.123 C158.345667,21.497 158.452,22.014 158.452,22.674 L158.452,22.674 L158.452,30 L161.136,30 L161.136,22.674 C161.136,21.8966667 161.103,21.2843333 161.037,20.837 C160.971,20.3896667 160.842667,20.012 160.652,19.704 C160.138667,18.7653333 159.207333,18.296 157.858,18.296 C157.242,18.296 156.659,18.4096667 156.109,18.637 C155.559,18.8643333 154.961333,19.242 154.316,19.77 L154.316,19.77 L154.316,14.204 L151.654,14.204 L151.654,30 L154.316,30 Z M168.198,30.264 C169.180667,30.264 170.093667,30.055 170.937,29.637 C171.780333,29.219 172.502667,28.4673333 173.104,27.382 L173.104,27.382 L171.08,26.348 C170.757333,26.964 170.383333,27.415 169.958,27.701 C169.532667,27.987 169.012,28.13 168.396,28.13 C167.501333,28.13 166.863333,27.8293333 166.482,27.228 C166.100667,26.6266667 165.880667,25.8126667 165.822,24.786 L165.822,24.786 L173.126,24.786 C173.140667,24.6246667 173.148,24.4853333 173.148,24.368 L173.148,24.368 L173.148,24.06 C173.148,22.3 172.741,20.8993333 171.927,19.858 C171.113,18.8166667 169.892,18.296 168.264,18.296 C167.516,18.296 166.830333,18.4353333 166.207,18.714 C165.583667,18.9926667 165.052,19.3886667 164.612,19.902 C164.172,20.4153333 163.827333,21.035 163.578,21.761 C163.328667,22.487 163.204,23.3046667 163.204,24.214 C163.204,25.094 163.306667,25.9043333 163.512,26.645 C163.717333,27.3856667 164.029,28.0236667 164.447,28.559 C164.865,29.0943333 165.385667,29.5123333 166.009,29.813 C166.632333,30.1136667 167.362,30.264 168.198,30.264 Z M170.574,23.004 L165.866,23.004 C165.983333,22.2266667 166.236333,21.585 166.625,21.079 C167.013667,20.573 167.567333,20.32 168.286,20.32 C169.004667,20.32 169.565667,20.562 169.969,21.046 C170.372333,21.53 170.574,22.1826667 170.574,23.004 L170.574,23.004 Z M179.66,30.264 C180.789333,30.264 181.75,30.0256667 182.542,29.549 C183.334,29.0723333 184.008667,28.3206667 184.566,27.294 L184.566,27.294 L182.498,26.194 C182.175333,26.8393333 181.805,27.316 181.387,27.624 C180.969,27.932 180.459333,28.086 179.858,28.086 C179.066,28.086 178.435333,27.7853333 177.966,27.184 C177.496667,26.5826667 177.262,25.6366667 177.262,24.346 C177.262,23.07 177.493,22.1056667 177.955,21.453 C178.417,20.8003333 179.044,20.474 179.836,20.474 C180.393333,20.4593333 180.862667,20.5986667 181.244,20.892 C181.625333,21.1853333 181.948,21.6473333 182.212,22.278 L182.212,22.278 L184.368,21.42 C183.986667,20.3053333 183.403667,19.506 182.619,19.022 C181.834333,18.538 180.892,18.296 179.792,18.296 C179,18.296 178.288667,18.4316667 177.658,18.703 C177.027333,18.9743333 176.484667,19.3703333 176.03,19.891 C175.575333,20.4116667 175.227,21.046 174.985,21.794 C174.743,22.542 174.622,23.3853333 174.622,24.324 C174.622,25.248 174.735667,26.0766667 174.963,26.81 C175.190333,27.5433333 175.520333,28.1666667 175.953,28.68 C176.385667,29.1933333 176.913667,29.5856667 177.537,29.857 C178.160333,30.1283333 178.868,30.264 179.66,30.264 Z M189.142,30 L189.142,26.568 L190.858,24.61 L193.674,30 L196.556,30 L192.662,22.498 L196.05,18.56 L193.036,18.56 L189.186,23.488 L189.142,23.488 L189.142,14.204 L186.502,14.204 L186.502,30 L189.142,30 Z M201.066,30.264 C201.755333,30.264 202.393333,30.1246667 202.98,29.846 C203.566667,29.5673333 204.168,29.1493333 204.784,28.592 L204.784,28.592 L204.784,30 L207.248,30 L207.248,18.56 L204.586,18.56 L204.586,26.7 C204.087333,27.1693333 203.643667,27.4993333 203.255,27.69 C202.866333,27.8806667 202.481333,27.976 202.1,27.976 C201.073333,27.976 200.56,27.3673333 200.56,26.15 L200.56,26.15 L200.56,18.56 L197.854,18.56 L197.854,26.128 C197.854,26.832 197.890667,27.3893333 197.964,27.8 C198.037333,28.2106667 198.162,28.5626667 198.338,28.856 C198.587333,29.3106667 198.943,29.659 199.405,29.901 C199.867,30.143 200.420667,30.264 201.066,30.264 Z M212.77,33.784 L212.77,28.966 C213.620667,29.7726667 214.610667,30.176 215.74,30.176 C216.458667,30.176 217.107667,30.033 217.687,29.747 C218.266333,29.461 218.754,29.0576667 219.15,28.537 C219.546,28.0163333 219.850333,27.3856667 220.063,26.645 C220.275667,25.9043333 220.382,25.072 220.382,24.148 C220.382,23.268 220.286667,22.4686667 220.096,21.75 C219.905333,21.0313333 219.623,20.4153333 219.249,19.902 C218.875,19.3886667 218.420333,18.9926667 217.885,18.714 C217.349667,18.4353333 216.737333,18.296 216.048,18.296 C215.3,18.296 214.658333,18.4463333 214.123,18.747 C213.587667,19.0476667 213.070667,19.462 212.572,19.99 L212.572,19.99 L212.572,18.56 L210.108,18.56 L210.108,33.784 L212.77,33.784 Z M215.08,27.998 C214.625333,27.998 214.2,27.8916667 213.804,27.679 C213.408,27.4663333 213.063333,27.1693333 212.77,26.788 L212.77,26.788 L212.77,21.926 C213.122,21.442 213.507,21.0863333 213.925,20.859 C214.343,20.6316667 214.742667,20.518 215.124,20.518 C215.916,20.518 216.535667,20.8333333 216.983,21.464 C217.430333,22.0946667 217.654,22.982 217.654,24.126 C217.654,25.3433333 217.445,26.293 217.027,26.975 C216.609,27.657 215.96,27.998 215.08,27.998 Z" id="SEOSiteCheckup" fill="#424747"></path>
            </g>
        </g>
    </g>
</svg>